REM DIRINDEX 1\2,1\3,1\4
REM DIRNAME cjc151,folder01,folder02,folder03
TITLE ""
FILE "007 007_TOEFL_3900.mp3" MP3
  TRACK 01 AUDIO
    TITLE "2:cjc151_0268"
    INDEX 01 00:00:00
  TRACK 02 AUDIO
    TITLE "0:"
    INDEX 01 00:01:19
  TRACK 03 AUDIO
    TITLE "3:cjc151_0269"
    INDEX 01 00:02:71
  TRACK 04 AUDIO
    TITLE "0:"
    INDEX 01 00:06:57
  TRACK 05 AUDIO
    TITLE "2:cjc151_0270"
    INDEX 01 00:08:36
  TRACK 06 AUDIO
    TITLE "0:"
    INDEX 01 00:09:44
  TRACK 07 AUDIO
    TITLE "3:cjc151_0271"
    INDEX 01 00:11:21
  TRACK 08 AUDIO
    TITLE "0:"
    INDEX 01 00:14:72
  TRACK 09 AUDIO
    TITLE "2:cjc151_0272"
    INDEX 01 00:16:51
  TRACK 10 AUDIO
    TITLE "0:"
    INDEX 01 00:18:07
  TRACK 11 AUDIO
    TITLE "3:cjc151_0273"
    INDEX 01 00:19:62
  TRACK 12 AUDIO
    TITLE "0:"
    INDEX 01 00:24:39
  TRACK 13 AUDIO
    TITLE "2:cjc151_0274"
    INDEX 01 00:26:18
  TRACK 14 AUDIO
    TITLE "0:"
    INDEX 01 00:27:26
  TRACK 15 AUDIO
    TITLE "3:cjc151_0275"
    INDEX 01 00:29:05
  TRACK 16 AUDIO
    TITLE "0:"
    INDEX 01 00:32:72
  TRACK 17 AUDIO
    TITLE "2:cjc151_0276"
    INDEX 01 00:34:55
  TRACK 18 AUDIO
    TITLE "0:"
    INDEX 01 00:35:63
  TRACK 19 AUDIO
    TITLE "3:cjc151_0277"
    INDEX 01 00:37:40
  TRACK 20 AUDIO
    TITLE "0:"
    INDEX 01 00:41:30
  TRACK 21 AUDIO
    TITLE "2:cjc151_0278"
    INDEX 01 00:43:11
  TRACK 22 AUDIO
    TITLE "0:"
    INDEX 01 00:44:14
  TRACK 23 AUDIO
    TITLE "3:cjc151_0279"
    INDEX 01 00:45:71
  TRACK 24 AUDIO
    TITLE "0:"
    INDEX 01 00:49:47
  TRACK 25 AUDIO
    TITLE "2:cjc151_0280"
    INDEX 01 00:51:28
  TRACK 26 AUDIO
    TITLE "0:"
    INDEX 01 00:52:26
  TRACK 27 AUDIO
    TITLE "3:cjc151_0281"
    INDEX 01 00:54:07
  TRACK 28 AUDIO
    TITLE "0:"
    INDEX 01 00:58:09
  TRACK 29 AUDIO
    TITLE "2:cjc151_0282"
    INDEX 01 00:59:61
  TRACK 30 AUDIO
    TITLE "0:"
    INDEX 01 01:00:57
  TRACK 31 AUDIO
    TITLE "3:cjc151_0283"
    INDEX 01 01:02:44
  TRACK 32 AUDIO
    TITLE "0:"
    INDEX 01 01:06:28
  TRACK 33 AUDIO
    TITLE "2:cjc151_0284"
    INDEX 01 01:08:07
  TRACK 34 AUDIO
    TITLE "0:"
    INDEX 01 01:09:18
  TRACK 35 AUDIO
    TITLE "3:cjc151_0285"
    INDEX 01 01:10:69
  TRACK 36 AUDIO
    TITLE "0:"
    INDEX 01 01:15:17
  TRACK 37 AUDIO
    TITLE "2:cjc151_0286"
    INDEX 01 01:16:71
  TRACK 38 AUDIO
    TITLE "0:"
    INDEX 01 01:18:00
  TRACK 39 AUDIO
    TITLE "3:cjc151_0287"
    INDEX 01 01:19:54
  TRACK 40 AUDIO
    TITLE "0:"
    INDEX 01 01:23:34
  TRACK 41 AUDIO
    TITLE "2:cjc151_0288"
    INDEX 01 01:25:15
  TRACK 42 AUDIO
    TITLE "0:"
    INDEX 01 01:26:21
  TRACK 43 AUDIO
    TITLE "3:cjc151_0289"
    INDEX 01 01:28:00
  TRACK 44 AUDIO
    TITLE "0:"
    INDEX 01 01:32:12
  TRACK 45 AUDIO
    TITLE "2:cjc151_0290"
    INDEX 01 01:33:64
  TRACK 46 AUDIO
    TITLE "0:"
    INDEX 01 01:34:71
  TRACK 47 AUDIO
    TITLE "3:cjc151_0291"
    INDEX 01 01:36:48
  TRACK 48 AUDIO
    TITLE "0:"
    INDEX 01 01:40:44
  TRACK 49 AUDIO
    TITLE "2:cjc151_0292"
    INDEX 01 01:42:28
  TRACK 50 AUDIO
    TITLE "0:"
    INDEX 01 01:43:29
  TRACK 51 AUDIO
    TITLE "3:cjc151_0293"
    INDEX 01 01:45:10
  TRACK 52 AUDIO
    TITLE "0:"
    INDEX 01 01:48:63
  TRACK 53 AUDIO
    TITLE "2:cjc151_0294"
    INDEX 01 01:50:43
  TRACK 54 AUDIO
    TITLE "0:"
    INDEX 01 01:51:50
  TRACK 55 AUDIO
    TITLE "3:cjc151_0295"
    INDEX 01 01:53:29
  TRACK 56 AUDIO
    TITLE "0:"
    INDEX 01 01:58:15
  TRACK 57 AUDIO
    TITLE "2:cjc151_0296"
    INDEX 01 01:59:71
  TRACK 58 AUDIO
    TITLE "0:"
    INDEX 01 02:01:03
  TRACK 59 AUDIO
    TITLE "3:cjc151_0297"
    INDEX 01 02:02:52
  TRACK 60 AUDIO
    TITLE "0:"
    INDEX 01 02:06:05
  TRACK 61 AUDIO
    TITLE "2:cjc151_0298"
    INDEX 01 02:07:57
  TRACK 62 AUDIO
    TITLE "0:"
    INDEX 01 02:08:56
  TRACK 63 AUDIO
    TITLE "3:cjc151_0299"
    INDEX 01 02:10:40
  TRACK 64 AUDIO
    TITLE "0:"
    INDEX 01 02:14:22
  TRACK 65 AUDIO
    TITLE "2:cjc151_0300"
    INDEX 01 02:16:03
  TRACK 66 AUDIO
    TITLE "0:"
    INDEX 01 02:16:73
  TRACK 67 AUDIO
    TITLE "3:cjc151_0301"
    INDEX 01 02:18:49
  TRACK 68 AUDIO
    TITLE "0:"
    INDEX 01 02:22:47
  TRACK 69 AUDIO
    TITLE "2:cjc151_0302"
    INDEX 01 02:24:28
  TRACK 70 AUDIO
    TITLE "0:"
    INDEX 01 02:25:43
  TRACK 71 AUDIO
    TITLE "3:cjc151_0303"
    INDEX 01 02:27:22
  TRACK 72 AUDIO
    TITLE "0:"
    INDEX 01 02:31:38
  TRACK 73 AUDIO
    TITLE "2:cjc151_0304"
    INDEX 01 02:33:17
  TRACK 74 AUDIO
    TITLE "0:"
    INDEX 01 02:34:20
  TRACK 75 AUDIO
    TITLE "3:cjc151_0305"
    INDEX 01 02:36:00
  TRACK 76 AUDIO
    TITLE "0:"
    INDEX 01 02:38:67
  TRACK 77 AUDIO
    TITLE "2:cjc151_0306"
    INDEX 01 02:40:47
  TRACK 78 AUDIO
    TITLE "0:"
    INDEX 01 02:41:71
  TRACK 79 AUDIO
    TITLE "3:cjc151_0307"
    INDEX 01 02:43:53
  TRACK 80 AUDIO
    TITLE "0:"
    INDEX 01 02:47:15
  TRACK 81 AUDIO
    TITLE "2:cjc151_0308"
    INDEX 01 02:48:72
  TRACK 82 AUDIO
    TITLE "0:"
    INDEX 01 02:50:10
  TRACK 83 AUDIO
    TITLE "3:cjc151_0309"
    INDEX 01 02:51:64
  TRACK 84 AUDIO
    TITLE "0:"
    INDEX 01 02:55:72
  TRACK 85 AUDIO
    TITLE "2:cjc151_0310"
    INDEX 01 02:57:49
  TRACK 86 AUDIO
    TITLE "0:"
    INDEX 01 02:58:56
  TRACK 87 AUDIO
    TITLE "3:cjc151_0311"
    INDEX 01 03:00:36
  TRACK 88 AUDIO
    TITLE "0:"
    INDEX 01 03:05:09
